<?xml version="1.0" standalone="no"?>
<!DOCTYPE svg PUBLIC "-//W3C//DTD SVG 20010904//EN"
 "http://www.w3.org/TR/2001/REC-SVG-20010904/DTD/svg10.dtd">
<svg version="1.0" xmlns="http://www.w3.org/2000/svg"
 width="288.000000pt" height="288.000000pt" viewBox="0 0 288.000000 288.000000"
 preserveAspectRatio="xMidYMid meet">
<metadata>
Created by potrace 1.14, written by Peter Selinger 2001-2017
</metadata>
<g transform="translate(0.000000,288.000000) scale(0.100000,-0.100000)"
fill="#000000" stroke="none">
<path d="M969 1784 c-25 -7 -67 -32 -93 -55 -45 -40 -96 -121 -96 -154 0 -12
-13 -15 -65 -15 l-65 0 0 -50 0 -50 60 0 c49 0 62 -3 66 -17 31 -96 82 -161
158 -200 179 -91 387 19 425 225 10 53 41 82 86 82 47 0 73 -28 85 -89 42
-222 279 -321 463 -194 47 33 90 94 108 151 l12 42 64 0 63 0 0 50 0 50 -64 0
-64 0 -13 38 c-47 145 -212 233 -359 192 -59 -16 -127 -66 -162 -118 -32 -48
-34 -50 -58 -36 -33 18 -114 18 -150 -1 -28 -14 -29 -14 -50 20 -32 51 -105
111 -157 129 -57 19 -132 19 -194 0z m169 -99 c144 -61 163 -250 34 -340 -37
-26 -53 -30 -106 -30 -51 0 -70 5 -103 27 -22 15 -50 42 -61 60 -97 158 66
353 236 283z m790 -18 c85 -59 110 -180 55 -265 -32 -50 -108 -92 -162 -92
-71 1 -156 59 -180 123 -15 40 -14 123 3 155 55 104 192 142 284 79z"/>
</g>
</svg>
